<svg width="720" height="420" viewBox="0 0 720 420" fill="none" xmlns="http://www.w3.org/2000/svg">
  <rect width="720" height="420" rx="24" fill="url(#paint0_linear)"/>
  <rect x="34" y="34" width="652" height="352" rx="20" fill="#ffffff" fill-opacity="0.9"/>
  <rect x="66" y="70" width="190" height="16" rx="8" fill="#2663EC"/>
  <rect x="66" y="98" width="280" height="10" rx="5" fill="#94A3B8"/>
  <rect x="66" y="124" width="588" height="76" rx="14" fill="#EDF3FF"/>
  <rect x="88" y="146" width="96" height="10" rx="5" fill="#2663EC"/>
  <rect x="88" y="165" width="160" height="8" rx="4" fill="#64748B"/>
  <rect x="298" y="146" width="96" height="10" rx="5" fill="#1CB8BE"/>
  <rect x="298" y="165" width="160" height="8" rx="4" fill="#64748B"/>
  <rect x="508" y="146" width="96" height="10" rx="5" fill="#3C64FF"/>
  <rect x="508" y="165" width="116" height="8" rx="4" fill="#64748B"/>
  <rect x="66" y="220" width="300" height="134" rx="14" fill="#EAF0FF"/>
  <rect x="88" y="244" width="112" height="10" rx="5" fill="#2663EC"/>
  <rect x="88" y="264" width="240" height="8" rx="4" fill="#64748B"/>
  <rect x="88" y="282" width="180" height="8" rx="4" fill="#64748B"/>
  <rect x="384" y="220" width="270" height="134" rx="14" fill="#E2F4F6"/>
  <rect x="406" y="244" width="122" height="10" rx="5" fill="#1CB8BE"/>
  <rect x="406" y="264" width="220" height="8" rx="4" fill="#4B5563"/>
  <rect x="406" y="282" width="190" height="8" rx="4" fill="#4B5563"/>
  <circle cx="635" cy="88" r="14" fill="#1CB8BE"/>
  <circle cx="92" cy="332" r="9" fill="#3C64FF"/>
  <defs>
    <linearGradient id="paint0_linear" x1="24" y1="11" x2="710" y2="408" gradientUnits="userSpaceOnUse">
      <stop stop-color="#E6EDFF"/>
      <stop offset="1" stop-color="#DEF6F7"/>
    </linearGradient>
  </defs>
</svg>
